<svg id="buildings" xmlns="http://www.w3.org/2000/svg" width="7.549" height="7.549" viewBox="0 0 7.549 7.549">
  <path id="Path_44" data-name="Path 44" d="M41,51h.244v.974H41Z" transform="translate(-36.129 -44.912)" fill="#c98b66"/>
  <path id="Path_45" data-name="Path 45" d="M45,51h.244v.974H45Z" transform="translate(-39.642 -44.912)" fill="#c98b66"/>
  <path id="Path_46" data-name="Path 46" d="M7.575,5.261V2.7H7.332V1.465l-.244.041V1.244H6.845v.3L6.6,1.587V1H6.358v.627l-.244.041V1.244H5.871v.465l-.244.041V2.7H5.383V3.922H4.409v-1.7H3.922V1.487H3.679V1H2.461v.487H2.218v.731H1.731V4.493a.853.853,0,0,0-.477.647H1V8.549H8.549V5.121Zm-1.7-3.305,1.218-.2V2.7H5.871Zm-.244.993h1.7V5.3L6.6,5.4v.633l-.365-.487-.365.487V3.922H5.627Zm0,1.461h-1.7V4.166h1.7Zm0,2.435H6.845V8.306H5.627ZM5.749,6.6l.487-.649.487.649ZM2.7,1.244h.731v.244H2.7Zm-.244.487H3.679v.487H2.461Zm-.487.731H4.166V3.922H3.679v.57a.847.847,0,0,0-.365-.083H2.1a.855.855,0,0,0-.122.01ZM2.1,4.653H3.314a.61.61,0,0,1,.6.487H1.5A.61.61,0,0,1,2.1,4.653Zm2.07.731v.244H1.244V5.383ZM3.679,7.575H3.192V7.088h.487Zm-.731,0H2.461V7.088h.487Zm0,.244v.487H2.461V7.819Zm.244,0h.487v.487H3.192Zm.487-.974H3.192V6.358h.487Zm-.731,0H2.461V6.358h.487Zm-.731,0H1.731V6.358h.487Zm-.487.244h.487v.487H1.731Zm0,.731h.487v.487H1.731Zm2.192.487V6.114H1.487V8.306H1.244V5.871H4.166V8.306ZM4.156,5.14a.849.849,0,0,0-.234-.474V4.653h1.7v1.7l-.244.325V8.306H4.409V5.14Zm4.15,3.166H7.088V6.682l-.244-.325V5.611L8.306,5.4Z" transform="translate(-1 -1)" fill="#c98b66"/>
  <path id="Path_47" data-name="Path 47" d="M31,33h.244v.244H31Z" transform="translate(-27.347 -29.104)" fill="#c98b66"/>
  <path id="Path_48" data-name="Path 48" d="M31,57h.244v.244H31Z" transform="translate(-27.347 -50.181)" fill="#c98b66"/>
  <path id="Path_49" data-name="Path 49" d="M31,37h.244v.244H31Z" transform="translate(-27.347 -32.617)" fill="#c98b66"/>
  <path id="Path_50" data-name="Path 50" d="M31,53h.244v.244H31Z" transform="translate(-27.347 -46.668)" fill="#c98b66"/>
  <path id="Path_51" data-name="Path 51" d="M31,45h.244v.244H31Z" transform="translate(-27.347 -39.642)" fill="#c98b66"/>
  <path id="Path_52" data-name="Path 52" d="M31,41h.244v.244H31Z" transform="translate(-27.347 -36.129)" fill="#c98b66"/>
  <path id="Path_53" data-name="Path 53" d="M31,49h.244v.244H31Z" transform="translate(-27.347 -43.155)" fill="#c98b66"/>
  <path id="Path_54" data-name="Path 54" d="M35,41h.244v.244H35Z" transform="translate(-30.86 -36.129)" fill="#c98b66"/>
  <path id="Path_55" data-name="Path 55" d="M35,37h.244v.244H35Z" transform="translate(-30.86 -32.617)" fill="#c98b66"/>
  <path id="Path_56" data-name="Path 56" d="M35,33h.244v.244H35Z" transform="translate(-30.86 -29.104)" fill="#c98b66"/>
  <path id="Path_57" data-name="Path 57" d="M57,57h.244v.244H57Z" transform="translate(-50.181 -50.181)" fill="#c98b66"/>
  <path id="Path_58" data-name="Path 58" d="M57,49h.244v.244H57Z" transform="translate(-50.181 -43.155)" fill="#c98b66"/>
  <path id="Path_59" data-name="Path 59" d="M57,53h.244v.244H57Z" transform="translate(-50.181 -46.668)" fill="#c98b66"/>
  <path id="Path_60" data-name="Path 60" d="M57,45h.244v.244H57Z" transform="translate(-50.181 -39.642)" fill="#c98b66"/>
  <path id="Path_61" data-name="Path 61" d="M57,41h.244v.244H57Z" transform="translate(-50.181 -36.129)" fill="#c98b66"/>
  <path id="Path_62" data-name="Path 62" d="M53,53h.244v.244H53Z" transform="translate(-46.668 -46.668)" fill="#c98b66"/>
  <path id="Path_63" data-name="Path 63" d="M53,41h.244v.244H53Z" transform="translate(-46.668 -36.129)" fill="#c98b66"/>
  <path id="Path_64" data-name="Path 64" d="M53,49h.244v.244H53Z" transform="translate(-46.668 -43.155)" fill="#c98b66"/>
  <path id="Path_65" data-name="Path 65" d="M53,57h.244v.244H53Z" transform="translate(-46.668 -50.181)" fill="#c98b66"/>
  <path id="Path_66" data-name="Path 66" d="M53,45h.244v.244H53Z" transform="translate(-46.668 -39.642)" fill="#c98b66"/>
  <path id="Path_67" data-name="Path 67" d="M23,15h.244v.244H23Z" transform="translate(-20.321 -13.295)" fill="#c98b66"/>
  <path id="Path_68" data-name="Path 68" d="M19,15h.244v.244H19Z" transform="translate(-16.808 -13.295)" fill="#c98b66"/>
  <path id="Path_69" data-name="Path 69" d="M11,15h.244v.244H11Z" transform="translate(-9.782 -13.295)" fill="#c98b66"/>
  <path id="Path_70" data-name="Path 70" d="M15,15h.244v.244H15Z" transform="translate(-13.295 -13.295)" fill="#c98b66"/>
  <path id="Path_71" data-name="Path 71" d="M15,19h.244v.244H15Z" transform="translate(-13.295 -16.808)" fill="#c98b66"/>
  <path id="Path_72" data-name="Path 72" d="M23,19h.244v.244H23Z" transform="translate(-20.321 -16.808)" fill="#c98b66"/>
  <path id="Path_73" data-name="Path 73" d="M11,19h.244v.244H11Z" transform="translate(-9.782 -16.808)" fill="#c98b66"/>
  <path id="Path_74" data-name="Path 74" d="M19,19h.244v.244H19Z" transform="translate(-16.808 -16.808)" fill="#c98b66"/>
  <path id="Path_75" data-name="Path 75" d="M11,23h.244v.244H11Z" transform="translate(-9.782 -20.321)" fill="#c98b66"/>
  <path id="Path_76" data-name="Path 76" d="M15,23h.244v.244H15Z" transform="translate(-13.295 -20.321)" fill="#c98b66"/>
  <path id="Path_77" data-name="Path 77" d="M19,23h.244v.244H19Z" transform="translate(-16.808 -20.321)" fill="#c98b66"/>
  <path id="Path_78" data-name="Path 78" d="M49,19h.244v.244H49Z" transform="translate(-43.155 -16.808)" fill="#c98b66"/>
  <path id="Path_79" data-name="Path 79" d="M45,19h.244v.244H45Z" transform="translate(-39.642 -16.808)" fill="#c98b66"/>
  <path id="Path_80" data-name="Path 80" d="M41,19h.244v.244H41Z" transform="translate(-36.129 -16.808)" fill="#c98b66"/>
  <path id="Path_81" data-name="Path 81" d="M49,23h.244v.244H49Z" transform="translate(-43.155 -20.321)" fill="#c98b66"/>
  <path id="Path_82" data-name="Path 82" d="M41,23h.244v.244H41Z" transform="translate(-36.129 -20.321)" fill="#c98b66"/>
  <path id="Path_83" data-name="Path 83" d="M45,23h.244v.244H45Z" transform="translate(-39.642 -20.321)" fill="#c98b66"/>
  <path id="Path_84" data-name="Path 84" d="M45,35h.244v.244H45Z" transform="translate(-39.642 -30.86)" fill="#c98b66"/>
  <path id="Path_85" data-name="Path 85" d="M45,31h.244v.244H45Z" transform="translate(-39.642 -27.347)" fill="#c98b66"/>
  <path id="Path_86" data-name="Path 86" d="M45,27h.244v.244H45Z" transform="translate(-39.642 -23.834)" fill="#c98b66"/>
  <path id="Path_87" data-name="Path 87" d="M49,31h.244v.244H49Z" transform="translate(-43.155 -27.347)" fill="#c98b66"/>
  <path id="Path_88" data-name="Path 88" d="M49,27h.244v.244H49Z" transform="translate(-43.155 -23.834)" fill="#c98b66"/>
</svg>
