<svg id="instagram" xmlns="http://www.w3.org/2000/svg" width="20.911" height="20.912" viewBox="0 0 20.911 20.912">
  <g id="Group_308" data-name="Group 308">
    <g id="Group_307" data-name="Group 307">
      <path id="Path_104" data-name="Path 104" d="M14.377,0H6.535A6.536,6.536,0,0,0,0,6.535v7.842a6.536,6.536,0,0,0,6.535,6.535h7.842a6.536,6.536,0,0,0,6.535-6.535V6.535A6.536,6.536,0,0,0,14.377,0Zm4.574,14.377a4.579,4.579,0,0,1-4.574,4.574H6.535A4.579,4.579,0,0,1,1.96,14.377V6.535A4.579,4.579,0,0,1,6.535,1.96h7.842a4.579,4.579,0,0,1,4.574,4.574Z" fill="#fff"/>
    </g>
  </g>
  <g id="Group_310" data-name="Group 310" transform="translate(5.228 5.228)">
    <g id="Group_309" data-name="Group 309">
      <path id="Path_105" data-name="Path 105" d="M133.228,128a5.228,5.228,0,1,0,5.228,5.228A5.228,5.228,0,0,0,133.228,128Zm0,8.5a3.267,3.267,0,1,1,3.267-3.267A3.272,3.272,0,0,1,133.228,136.5Z" transform="translate(-128 -128)" fill="#fff"/>
    </g>
  </g>
  <g id="Group_312" data-name="Group 312" transform="translate(15.379 4.139)">
    <g id="Group_311" data-name="Group 311">
      <ellipse id="Ellipse_12" data-name="Ellipse 12" cx="0.697" cy="0.697" rx="0.697" ry="0.697" fill="#fff"/>
    </g>
  </g>
</svg>
