<svg id="linkedin" xmlns="http://www.w3.org/2000/svg" width="22.576" height="20.623" viewBox="0 0 22.576 20.623">
  <g id="Group_305" data-name="Group 305" transform="translate(0 0)">
    <path id="Path_100" data-name="Path 100" d="M.733,193.145H3.668a.733.733,0,0,0,.733-.733V179.583a.733.733,0,0,0-.733-.733H.733a.733.733,0,0,0-.733.733v12.829A.733.733,0,0,0,.733,193.145Z" transform="translate(0 -172.522)" fill="#fff"/>
    <path id="Path_101" data-name="Path 101" d="M.733,27.989H3.668a.733.733,0,0,0,.733-.733V24.649a.733.733,0,0,0-.733-.733H.733A.733.733,0,0,0,0,24.649v2.606A.733.733,0,0,0,.733,27.989Z" transform="translate(0 -23.916)" fill="#fff"/>
    <path id="Path_102" data-name="Path 102" d="M195.6,171.509a4.463,4.463,0,0,0-1.825-1.339,6.607,6.607,0,0,0-2.663-.525A6.521,6.521,0,0,0,186.1,171.9c-.272.3-.471.234-.471-.171v-.977a.733.733,0,0,0-.733-.733h-2.622a.733.733,0,0,0-.733.733v12.829a.733.733,0,0,0,.733.733h2.935a.733.733,0,0,0,.733-.733v-4.461a14.353,14.353,0,0,1,.337-3.822,3.156,3.156,0,0,1,1.245-1.66,3.529,3.529,0,0,1,2.052-.627,2.619,2.619,0,0,1,1.527.439,2.444,2.444,0,0,1,.916,1.23,13.117,13.117,0,0,1,.282,3.485v5.417a.733.733,0,0,0,.733.733h2.935a.733.733,0,0,0,.733-.733v-7.265a13.758,13.758,0,0,0-.243-2.96A4.848,4.848,0,0,0,195.6,171.509Z" transform="translate(-174.129 -163.693)" fill="#fff"/>
  </g>
</svg>
