<svg xmlns="http://www.w3.org/2000/svg" width="150" height="70" viewBox="0 0 411.608 119.352" style="&#10;"><g transform="translate(261.158 100.603)"><path d="M422.393,394.458h-6.606v5.15H423.4v1.535h-9.569V386.722h9.46v1.535h-7.508v4.665h6.606Z" transform="translate(-413.834 -386.722)" fill="#edeeef"/></g><path d="M430.537,400.711c-.067-.323-.119-.609-.154-.857a6.309,6.309,0,0,1-.065-.747A4.536,4.536,0,0,1,428.9,400.4a3.633,3.633,0,0,1-1.887.52,3.5,3.5,0,0,1-2.55-.857,3.15,3.15,0,0,1-.877-2.362,2.766,2.766,0,0,1,1.244-2.4,5.8,5.8,0,0,1,3.373-.867h2.119v-1.06a1.966,1.966,0,0,0-.574-1.49,2.249,2.249,0,0,0-1.624-.55,2.347,2.347,0,0,0-1.531.48,1.44,1.44,0,0,0-.589,1.155h-1.863l-.019-.06a2.594,2.594,0,0,1,1.105-2.139,4.538,4.538,0,0,1,3.005-.971,4.429,4.429,0,0,1,2.932.927,3.284,3.284,0,0,1,1.108,2.67v5.159a9.957,9.957,0,0,0,.061,1.11,5.7,5.7,0,0,0,.218,1.05Zm-3.239-1.436a3.487,3.487,0,0,0,1.912-.543,2.579,2.579,0,0,0,1.108-1.245v-1.739H428.13a2.848,2.848,0,0,0-1.887.593,1.77,1.77,0,0,0-.707,1.392,1.463,1.463,0,0,0,.446,1.127,1.867,1.867,0,0,0,1.317.414" transform="translate(-151.302 -285.686)" fill="#edeeef"/><path d="M439.952,397.857a1.331,1.331,0,0,0-.491-1.06,4.612,4.612,0,0,0-1.858-.722,7.833,7.833,0,0,1-2.936-1.152,2.333,2.333,0,0,1-.986-1.984,2.8,2.8,0,0,1,1.109-2.225,5.055,5.055,0,0,1,5.869.041,2.843,2.843,0,0,1,1.054,2.338l-.021.059h-1.861a1.7,1.7,0,0,0-.589-1.262,2.171,2.171,0,0,0-1.561-.56,2.249,2.249,0,0,0-1.545.455,1.426,1.426,0,0,0-.505,1.1,1.23,1.23,0,0,0,.445,1,4.64,4.64,0,0,0,1.813.654,7.811,7.811,0,0,1,3.021,1.183,2.385,2.385,0,0,1,.99,2.007,2.764,2.764,0,0,1-1.154,2.306,4.828,4.828,0,0,1-3.016.883,4.706,4.706,0,0,1-3.229-1.041,2.964,2.964,0,0,1-1.12-2.427l.02-.059h1.862a1.791,1.791,0,0,0,.772,1.513,3,3,0,0,0,1.694.478,2.758,2.758,0,0,0,1.628-.421,1.3,1.3,0,0,0,.59-1.1" transform="translate(-149.921 -285.686)" fill="#edeeef"/><path d="M446.4,396.713l.347,1.349h.058l2.635-8.094h2.169L447.1,402.33a5.567,5.567,0,0,1-1.164,1.881,2.68,2.68,0,0,1-2.046.8,4.4,4.4,0,0,1-.6-.054q-.365-.056-.564-.1l.2-1.536a2.565,2.565,0,0,1,.353.019c.274.019.446.03.52.03a1.2,1.2,0,0,0,1.019-.554,5.682,5.682,0,0,0,.663-1.229l.468-1.118-3.983-10.5h2.18Z" transform="translate(-148.711 -285.662)" fill="#edeeef"/><path d="M458.609,394.893v6.249h-1.952V386.73h5.22a5.482,5.482,0,0,1,3.616,1.05,3.766,3.766,0,0,1,1.248,3.051,3.26,3.26,0,0,1-.58,1.932,3.928,3.928,0,0,1-1.689,1.308,2.96,2.96,0,0,1,1.709,1.254,4.1,4.1,0,0,1,.519,2.144v1.357a4.508,4.508,0,0,0,.15,1.208,1.813,1.813,0,0,0,.515.872v.237h-2.011a1.609,1.609,0,0,1-.494-.99,8.139,8.139,0,0,1-.11-1.347v-1.317a2.609,2.609,0,0,0-.683-1.881,2.417,2.417,0,0,0-1.833-.713Zm0-1.536h3.069a3.631,3.631,0,0,0,2.382-.628,2.389,2.389,0,0,0,.729-1.913,2.459,2.459,0,0,0-.708-1.883,3.123,3.123,0,0,0-2.2-.668h-3.268Z" transform="translate(-146.64 -286.118)" fill="#edeeef"/><path d="M472.618,400.918a4.52,4.52,0,0,1-3.561-1.49,5.611,5.611,0,0,1-1.323-3.868v-.436a5.5,5.5,0,0,1,1.363-3.809,4.2,4.2,0,0,1,3.223-1.521A4.059,4.059,0,0,1,475.6,391.1a5.215,5.215,0,0,1,1.109,3.486v1.22h-6.953l-.029.049a4.2,4.2,0,0,0,.782,2.533,2.493,2.493,0,0,0,2.11.994,4.927,4.927,0,0,0,1.738-.282,4,4,0,0,0,1.293-.778l.763,1.269a4.517,4.517,0,0,1-1.517.947,6.081,6.081,0,0,1-2.277.379m-.3-9.587a2.112,2.112,0,0,0-1.674.825,3.891,3.891,0,0,0-.851,2.067l.019.049h4.943v-.256a2.977,2.977,0,0,0-.614-1.916,2.194,2.194,0,0,0-1.823-.77" transform="translate(-145.078 -285.686)" fill="#edeeef"/><path d="M484.15,400.711c-.066-.323-.118-.609-.154-.857a6.577,6.577,0,0,1-.065-.747,4.524,4.524,0,0,1-1.42,1.292,3.63,3.63,0,0,1-1.886.52,3.5,3.5,0,0,1-2.55-.857,3.145,3.145,0,0,1-.877-2.362,2.766,2.766,0,0,1,1.244-2.4,5.8,5.8,0,0,1,3.372-.867h2.119v-1.06a1.966,1.966,0,0,0-.573-1.49,2.254,2.254,0,0,0-1.625-.55,2.341,2.341,0,0,0-1.53.48,1.441,1.441,0,0,0-.59,1.155h-1.862l-.019-.06a2.593,2.593,0,0,1,1.1-2.139,4.539,4.539,0,0,1,3.005-.971,4.427,4.427,0,0,1,2.932.927,3.282,3.282,0,0,1,1.109,2.67v5.159a10.265,10.265,0,0,0,.059,1.11,5.7,5.7,0,0,0,.219,1.05Zm-3.238-1.436a3.483,3.483,0,0,0,1.911-.543,2.568,2.568,0,0,0,1.108-1.245v-1.739h-2.187a2.845,2.845,0,0,0-1.887.593,1.772,1.772,0,0,0-.709,1.392,1.463,1.463,0,0,0,.446,1.127,1.871,1.871,0,0,0,1.318.414" transform="translate(-143.744 -285.686)" fill="#edeeef"/><rect width="1.951" height="15.451" transform="translate(345.132 99.572)" fill="#edeeef"/><path d="M505.07,394.458h-6.606v5.15h7.617v1.535h-9.568V386.722h9.458v1.535h-7.507v4.665h6.606Z" transform="translate(-141.021 -286.119)" fill="#edeeef"/><path d="M512.855,397.857a1.332,1.332,0,0,0-.491-1.06,4.605,4.605,0,0,0-1.858-.722,7.832,7.832,0,0,1-2.936-1.152,2.333,2.333,0,0,1-.986-1.984,2.8,2.8,0,0,1,1.11-2.225,5.054,5.054,0,0,1,5.868.041,2.845,2.845,0,0,1,1.055,2.338l-.021.059h-1.862a1.705,1.705,0,0,0-.589-1.262,2.17,2.17,0,0,0-1.56-.56,2.251,2.251,0,0,0-1.546.455,1.425,1.425,0,0,0-.5,1.1,1.229,1.229,0,0,0,.444,1,4.64,4.64,0,0,0,1.813.654,7.819,7.819,0,0,1,3.022,1.183,2.387,2.387,0,0,1,.989,2.007,2.764,2.764,0,0,1-1.154,2.306,4.828,4.828,0,0,1-3.015.883,4.7,4.7,0,0,1-3.229-1.041,2.967,2.967,0,0,1-1.12-2.427l.021-.059h1.862a1.791,1.791,0,0,0,.771,1.513,3,3,0,0,0,1.694.478,2.758,2.758,0,0,0,1.628-.421,1.3,1.3,0,0,0,.59-1.1" transform="translate(-139.644 -285.686)" fill="#edeeef"/><path d="M518.589,387.7v2.584h2.031v1.446h-2.031v6.508a1.461,1.461,0,0,0,.312,1.06,1.129,1.129,0,0,0,.828.307,1.863,1.863,0,0,0,.371-.04,2.138,2.138,0,0,0,.363-.1l.257,1.336a1.7,1.7,0,0,1-.639.292,3.163,3.163,0,0,1-.848.115,2.526,2.526,0,0,1-1.891-.718,3.124,3.124,0,0,1-.7-2.255v-6.508h-1.7v-1.446h1.7V387.7Z" transform="translate(-138.424 -285.981)" fill="#edeeef"/><path d="M528.658,400.711c-.066-.323-.118-.609-.153-.857a6.283,6.283,0,0,1-.065-.747,4.533,4.533,0,0,1-1.422,1.292,3.63,3.63,0,0,1-1.886.52,3.5,3.5,0,0,1-2.55-.857,3.146,3.146,0,0,1-.877-2.362,2.766,2.766,0,0,1,1.244-2.4,5.8,5.8,0,0,1,3.371-.867h2.12v-1.06a1.967,1.967,0,0,0-.574-1.49,2.252,2.252,0,0,0-1.625-.55,2.341,2.341,0,0,0-1.53.48,1.441,1.441,0,0,0-.59,1.155h-1.862l-.019-.06a2.592,2.592,0,0,1,1.1-2.139,4.539,4.539,0,0,1,3.005-.971,4.431,4.431,0,0,1,2.933.927,3.284,3.284,0,0,1,1.108,2.67v5.159a10.265,10.265,0,0,0,.059,1.11,5.7,5.7,0,0,0,.219,1.05Zm-3.238-1.436a3.481,3.481,0,0,0,1.911-.543,2.577,2.577,0,0,0,1.109-1.245v-1.739h-2.188a2.845,2.845,0,0,0-1.887.593,1.771,1.771,0,0,0-.708,1.392,1.463,1.463,0,0,0,.446,1.127,1.871,1.871,0,0,0,1.318.414" transform="translate(-137.47 -285.686)" fill="#edeeef"/><path d="M534.51,387.7v2.584h2.03v1.446h-2.03v6.508a1.456,1.456,0,0,0,.312,1.06,1.126,1.126,0,0,0,.827.307,1.883,1.883,0,0,0,.372-.04,2.154,2.154,0,0,0,.362-.1l.257,1.336a1.69,1.69,0,0,1-.638.292,3.176,3.176,0,0,1-.848.115,2.528,2.528,0,0,1-1.892-.718,3.125,3.125,0,0,1-.7-2.255v-6.508h-1.7v-1.446h1.7V387.7Z" transform="translate(-136.18 -285.981)" fill="#edeeef"/><path d="M542.448,400.918a4.517,4.517,0,0,1-3.56-1.49,5.61,5.61,0,0,1-1.323-3.868v-.436a5.49,5.49,0,0,1,1.364-3.809,4.194,4.194,0,0,1,3.223-1.521,4.06,4.06,0,0,1,3.279,1.308,5.216,5.216,0,0,1,1.109,3.486v1.22h-6.954l-.028.049a4.218,4.218,0,0,0,.781,2.533,2.5,2.5,0,0,0,2.11.994,4.928,4.928,0,0,0,1.738-.282,4,4,0,0,0,1.294-.778l.762,1.269a4.513,4.513,0,0,1-1.515.947,6.089,6.089,0,0,1-2.279.379m-.3-9.587a2.112,2.112,0,0,0-1.674.825,3.9,3.9,0,0,0-.852,2.067l.021.049h4.942v-.256a2.977,2.977,0,0,0-.613-1.916,2.194,2.194,0,0,0-1.823-.77" transform="translate(-135.234 -285.686)" fill="#edeeef"/><path d="M235.145,324.8v18.67q-4.809-5.869-8.617-8.055a16.786,16.786,0,0,0-8.8-2.248,17.356,17.356,0,0,0-13.175,5.558,19.49,19.49,0,0,0-5.245,13.924q0,8.556,5.058,14.049a17.05,17.05,0,0,0,13.049,5.495A17.839,17.839,0,0,0,226.341,370q3.748-2.121,8.8-8.241V380.3a36.882,36.882,0,0,1-17.108,4.434q-14.111,0-23.6-9.116a30.421,30.421,0,0,1-9.491-22.791,30.83,30.83,0,0,1,9.616-22.978,32.528,32.528,0,0,1,23.6-9.366,35.258,35.258,0,0,1,16.983,4.308" transform="translate(-184.943 -295.456)" fill="#be7652"/><path d="M283.82,320.727h14.112V382.99H283.82v-6.369q-8.682,8.117-18.671,8.117a26.89,26.89,0,0,1-20.855-9.116q-8.181-9.3-8.181-23.228,0-13.674,8.181-22.791a26.367,26.367,0,0,1,20.479-9.116q10.616,0,19.046,8.741Zm-33.345,31.668q0,8.742,4.683,14.237a15.341,15.341,0,0,0,12.115,5.557,16.117,16.117,0,0,0,12.612-5.37q4.809-5.555,4.808-14.112t-4.808-14.112a15.9,15.9,0,0,0-12.488-5.432,15.53,15.53,0,0,0-12.113,5.495,20.25,20.25,0,0,0-4.809,13.737" transform="translate(-177.729 -295.456)" fill="#be7652"/><path d="M472.054,355.794H428.47q.561,7.493,4.871,11.927a14.847,14.847,0,0,0,11.051,4.371,14.376,14.376,0,0,0,8.681-2.5q3.372-2.5,7.68-9.242l11.864,6.62A47.252,47.252,0,0,1,466.809,375a30.784,30.784,0,0,1-6.556,5.494,26.315,26.315,0,0,1-7.554,3.154,36.835,36.835,0,0,1-8.8,1q-13.615,0-21.854-8.742-8.244-8.8-8.242-23.352,0-14.426,7.992-23.353,8.054-8.8,21.354-8.8,13.423,0,21.23,8.554,7.742,8.492,7.743,23.54ZM457.63,344.306q-2.935-11.239-14.174-11.24a14.563,14.563,0,0,0-4.808.78,13.773,13.773,0,0,0-4.089,2.248,14.243,14.243,0,0,0-3.153,3.528,16.384,16.384,0,0,0-2,4.684Z" transform="translate(-152.682 -295.47)" fill="#be7652"/><path d="M519.741,320.579h14.112l-.083,62.078H519.658v-6.369q-8.682,8.118-18.671,8.117a26.89,26.89,0,0,1-20.855-9.116q-8.181-9.3-8.181-23.228,0-13.675,8.181-22.791a26.367,26.367,0,0,1,20.479-9.116q10.616,0,19.046,8.742ZM486.313,352.06q0,8.742,4.683,14.237a15.341,15.341,0,0,0,12.115,5.557,16.12,16.12,0,0,0,12.612-5.369q4.809-5.557,4.808-14.113t-4.808-14.111a15.9,15.9,0,0,0-12.488-5.432,15.53,15.53,0,0,0-12.113,5.495,20.25,20.25,0,0,0-4.809,13.737" transform="translate(-144.484 -295.504)" fill="#be7652"/><rect width="14.049" height="86.808" transform="translate(397.559 0.43)" fill="#be7652"/><path d="M408.121,298.549v30.138a34.49,34.49,0,0,0-37.831-.949l.066.411,5.639,13.146.2-.724a20.013,20.013,0,0,1,12.292-4.21c10.826,0,19.632,8.566,19.632,19.1a19.266,19.266,0,0,1-17.374,18.969,19.79,19.79,0,0,1-2.258.129,20.013,20.013,0,0,1-12.323-4.233,19.242,19.242,0,0,1-4.6-5.18,18.719,18.719,0,0,1-2.065-4.819l-8.709-20.33-.032-.067c-.066-.13-.139-.253-.235-.416a33.822,33.822,0,0,0-20.47-15.758c-1-.27-2-.5-2.977-.665a35.021,35.021,0,0,0-13.635.291c-15.435,3.434-26.214,16.626-26.214,32.081v56.186h14.13V382.228a34.495,34.495,0,0,0,37.725,1.017l-.063-.411L343.392,369.7l-.2.714a19.771,19.771,0,0,1-12.2,4.136c-10.826,0-19.632-8.568-19.632-19.1A19.286,19.286,0,0,1,328.61,336.5a19.9,19.9,0,0,1,14.466,3.9l.049.038a19.3,19.3,0,0,1,4.79,5.335,18.642,18.642,0,0,1,2.033,4.7l8.737,20.442.033.07c.079.145.159.291.236.421a33.811,33.811,0,0,0,20.47,15.757c.93.256,1.884.471,2.83.639a34.948,34.948,0,0,0,13.656-.238c15.264-3.335,26.341-16.837,26.341-32.106V298.549Z" transform="translate(-169.114 -298.549)" fill="#be7652"/><line y1="63.844" transform="translate(128.003 53.837)" fill="none" stroke="#edeeef" stroke-miterlimit="10" stroke-width="0.25"/></svg>