<svg xmlns="http://www.w3.org/2000/svg" width="18" height="18" viewBox="0 0 23.318 23.045"><defs><style>.a{fill:#c98b66;}</style></defs><g transform="translate(13.661 11.532)"><path class="a" d="M301.867,259.487a.876.876,0,1,1,1-.867.455.455,0,0,0,.911,0,1.812,1.812,0,0,0-1.457-1.727v-.237a.455.455,0,0,0-.911,0v.237a1.812,1.812,0,0,0-1.457,1.727,1.851,1.851,0,0,0,1.913,1.778.876.876,0,1,1-1,.867.455.455,0,0,0-.911,0,1.812,1.812,0,0,0,1.457,1.727v.2a.455.455,0,0,0,.911,0v-.2a1.812,1.812,0,0,0,1.457-1.727A1.851,1.851,0,0,0,301.867,259.487Z" transform="translate(-299.954 -256.201)"/></g><g transform="translate(17.485 9.919)"><path class="a" d="M387,222.975a5.935,5.935,0,0,0-2.424-2.145.455.455,0,0,0-.395.821,5.014,5.014,0,0,1,2.258,6.868.455.455,0,1,0,.8.428,5.927,5.927,0,0,0-.244-5.971Z" transform="translate(-383.924 -220.785)"/></g><g transform="translate(15.804 9.382)"><path class="a" d="M347.486,209h-.031a.455.455,0,1,0,0,.911h.029a.455.455,0,0,0,0-.911Z" transform="translate(-347 -209.001)"/></g><g transform="translate(9.655 12.284)"><path class="a" d="M215.755,280.248a5.014,5.014,0,0,1-2.258-6.868.455.455,0,0,0-.8-.428,5.923,5.923,0,0,0,2.668,8.116.455.455,0,1,0,.395-.821Z" transform="translate(-212.002 -272.711)"/></g><g transform="translate(14.409 20.313)"><path class="a" d="M316.862,449h-.026a.455.455,0,0,0,0,.911h.031a.455.455,0,0,0,0-.911Z" transform="translate(-316.378 -448.999)"/></g><g transform="translate(0 0)"><path class="a" d="M17.644,10.841a2.09,2.09,0,0,0-.2-.372h1.186a2.1,2.1,0,0,0,0-4.19H14.98A2.094,2.094,0,0,0,13.253,3H2.1a2.1,2.1,0,0,0,0,4.19H5.742a2.089,2.089,0,0,0,0,2.368H4.554a2.094,2.094,0,0,0-1.3,3.735,2.091,2.091,0,0,0,0,3.279,2.091,2.091,0,0,0,0,3.279,2.094,2.094,0,0,0,1.3,3.735H9.922a7.741,7.741,0,1,0,7.722-12.745Zm.983-3.651a1.184,1.184,0,1,1,0,2.368H7.469a1.184,1.184,0,0,1,0-2.368ZM2.1,6.279a1.184,1.184,0,0,1,0-2.368H13.253a1.184,1.184,0,0,1,0,2.368Zm2.459,4.19H15.713a1.183,1.183,0,0,1,.517.119c-.215-.018-.433-.028-.653-.028A7.718,7.718,0,0,0,10.1,12.837H4.554a1.184,1.184,0,0,1,0-2.368Zm0,3.279H9.319a7.72,7.72,0,0,0-1.171,2.368H4.554a1.184,1.184,0,0,1,0-2.368Zm0,3.279H7.939A7.749,7.749,0,0,0,7.911,19.4H4.554a1.184,1.184,0,0,1,0-2.368Zm0,5.647a1.184,1.184,0,0,1,0-2.368H8.1A7.712,7.712,0,0,0,9.19,22.675Zm11.022,2.459A6.832,6.832,0,1,1,22.408,18.3,6.839,6.839,0,0,1,15.576,25.134Z" transform="translate(0 -3)"/></g></svg>
