<svg xmlns="http://www.w3.org/2000/svg" width="26.793" height="21.769" viewBox="0 0 26.793 21.769">
  <path id="twitter_1_" data-name="twitter (1)" d="M24.04,7.679a10.964,10.964,0,0,0,2.753-2.851h0a11.471,11.471,0,0,1-3.165.867,5.464,5.464,0,0,0,2.417-3.035,10.99,10.99,0,0,1-3.483,1.33,5.492,5.492,0,0,0-9.5,3.755A5.656,5.656,0,0,0,13.188,9,15.551,15.551,0,0,1,1.865,3.25a5.493,5.493,0,0,0,1.688,7.341,5.429,5.429,0,0,1-2.482-.677v.06a5.519,5.519,0,0,0,4.4,5.4,5.462,5.462,0,0,1-1.44.181,4.848,4.848,0,0,1-1.039-.094,5.547,5.547,0,0,0,5.132,3.827,11.041,11.041,0,0,1-6.811,2.342A10.388,10.388,0,0,1,0,21.554a15.468,15.468,0,0,0,8.426,2.465A15.527,15.527,0,0,0,24.04,7.679Z" transform="translate(0 -2.25)" fill="#fff"/>
</svg>
