<svg xmlns="http://www.w3.org/2000/svg" width="628.244" height="338.07" viewBox="0 0 628.244 338.07">
  <g id="undraw_quite_town_mg2q" transform="translate(0 -0.037)">
    <path id="Path_128" data-name="Path 128" d="M291.677,659.883h-1.415a66.485,66.485,0,1,0-132.97,0h-1.415a67.9,67.9,0,1,1,135.8,0Z" transform="translate(-155.878 -322.507)" fill="#3f3d56"/>
    <path id="Path_129" data-name="Path 129" d="M987.677,659.883h-1.415a66.485,66.485,0,1,0-132.97,0h-1.415a67.9,67.9,0,1,1,135.8,0Z" transform="translate(-359.606 -322.507)" fill="#3f3d56"/>
    <path id="Path_130" data-name="Path 130" d="M707.014,408.052H705.6a121.653,121.653,0,1,0-243.307,0h-1.415a123.068,123.068,0,1,1,246.136,0Z" transform="translate(-245.155 -232.644)" fill="#3f3d56"/>
    <circle id="Ellipse_20" data-name="Ellipse 20" cx="28" cy="28" r="28" transform="translate(75 0.037)" fill="#ff6584"/>
    <path id="Path_131" data-name="Path 131" d="M153.891,287.728l48-57.161h94.366l57.668,56.17-1.165.749h.416V404.319H153.957V287.486Z" transform="translate(-45.046 -67.49)" fill="#3f3d56"/>
    <rect id="Rectangle_105" data-name="Rectangle 105" width="10.88" height="37.662" transform="translate(148.603 195.387) rotate(180)" fill="#3f3d56"/>
    <path id="Path_132" data-name="Path 132" d="M201.167,229.508l59.165,69.366V404.009H153.984V285.678Z" transform="translate(-45.073 -67.18)" fill="#c98b66"/>
    <rect id="Rectangle_106" data-name="Rectangle 106" width="21.719" height="22.208" transform="translate(179.868 245.46)" fill="#3f3d56"/>
    <rect id="Rectangle_107" data-name="Rectangle 107" width="21.719" height="22.208" transform="translate(179.868 275.677)" fill="#3f3d56"/>
    <rect id="Rectangle_108" data-name="Rectangle 108" width="21.719" height="22.208" transform="translate(179.868 245.46)" fill="#fff"/>
    <rect id="Rectangle_109" data-name="Rectangle 109" width="21.719" height="22.208" transform="translate(179.868 275.677)" fill="#fff"/>
    <rect id="Rectangle_110" data-name="Rectangle 110" width="21.719" height="22.208" transform="translate(149.83 245.46)" fill="#3f3d56"/>
    <rect id="Rectangle_111" data-name="Rectangle 111" width="21.719" height="22.208" transform="translate(149.83 275.677)" fill="#3f3d56"/>
    <rect id="Rectangle_112" data-name="Rectangle 112" width="21.719" height="22.208" transform="translate(149.83 245.46)" fill="#fff"/>
    <rect id="Rectangle_113" data-name="Rectangle 113" width="21.719" height="22.208" transform="translate(149.83 275.677)" fill="#fff"/>
    <rect id="Rectangle_114" data-name="Rectangle 114" width="21.719" height="22.208" transform="translate(119.793 245.46)" fill="#3f3d56"/>
    <rect id="Rectangle_115" data-name="Rectangle 115" width="21.719" height="22.208" transform="translate(119.793 275.677)" fill="#3f3d56"/>
    <rect id="Rectangle_116" data-name="Rectangle 116" width="21.719" height="22.208" transform="translate(119.793 245.46)" fill="#fff"/>
    <rect id="Rectangle_117" data-name="Rectangle 117" width="21.719" height="22.208" transform="translate(119.793 275.677)" fill="#fff"/>
    <rect id="Rectangle_118" data-name="Rectangle 118" width="10" height="25" transform="translate(343 28.037)" fill="#c98b66"/>
    <rect id="Rectangle_119" data-name="Rectangle 119" width="84" height="286" transform="translate(268 51.037)" fill="#c98b66"/>
    <rect id="Rectangle_120" data-name="Rectangle 120" width="34" height="286" transform="translate(352 51.037)" fill="#3f3d56"/>
    <rect id="Rectangle_121" data-name="Rectangle 121" width="12.731" height="12.731" transform="translate(283.269 75.68)" fill="#fff"/>
    <rect id="Rectangle_122" data-name="Rectangle 122" width="12.731" height="12.731" transform="translate(303.78 75.68)" fill="#fff"/>
    <rect id="Rectangle_123" data-name="Rectangle 123" width="12.731" height="12.731" transform="translate(324.291 75.68)" fill="#fff"/>
    <rect id="Rectangle_124" data-name="Rectangle 124" width="12" height="12" transform="translate(284 105.037)" fill="#fff"/>
    <rect id="Rectangle_125" data-name="Rectangle 125" width="13" height="12" transform="translate(304 105.037)" fill="#fff"/>
    <rect id="Rectangle_126" data-name="Rectangle 126" width="12" height="12" transform="translate(325 105.037)" fill="#fff"/>
    <rect id="Rectangle_127" data-name="Rectangle 127" width="12.731" height="12.731" transform="translate(283.976 133.677)" fill="#fff"/>
    <rect id="Rectangle_128" data-name="Rectangle 128" width="12.731" height="12.731" transform="translate(304.487 133.677)" fill="#fff"/>
    <rect id="Rectangle_129" data-name="Rectangle 129" width="12.731" height="12.731" transform="translate(324.999 133.677)" fill="#fff"/>
    <rect id="Rectangle_130" data-name="Rectangle 130" width="13" height="12" transform="translate(284 163.037)" fill="#fff"/>
    <rect id="Rectangle_131" data-name="Rectangle 131" width="13" height="12" transform="translate(305 163.037)" fill="#fff"/>
    <rect id="Rectangle_132" data-name="Rectangle 132" width="13" height="12" transform="translate(325 163.037)" fill="#fff"/>
    <rect id="Rectangle_133" data-name="Rectangle 133" width="12.731" height="12.731" transform="translate(284.683 191.675)" fill="#fff"/>
    <rect id="Rectangle_134" data-name="Rectangle 134" width="12.731" height="12.731" transform="translate(305.195 191.675)" fill="#fff"/>
    <rect id="Rectangle_135" data-name="Rectangle 135" width="12.731" height="12.731" transform="translate(325.706 191.675)" fill="#fff"/>
    <rect id="Rectangle_136" data-name="Rectangle 136" width="13" height="12" transform="translate(285 221.037)" fill="#fff"/>
    <rect id="Rectangle_137" data-name="Rectangle 137" width="12" height="12" transform="translate(306 221.037)" fill="#fff"/>
    <rect id="Rectangle_138" data-name="Rectangle 138" width="13" height="12" transform="translate(326 221.037)" fill="#fff"/>
    <rect id="Rectangle_139" data-name="Rectangle 139" width="12.731" height="12.731" transform="translate(285.391 249.673)" fill="#fff"/>
    <rect id="Rectangle_140" data-name="Rectangle 140" width="12.731" height="12.731" transform="translate(305.902 249.673)" fill="#fff"/>
    <rect id="Rectangle_141" data-name="Rectangle 141" width="12.731" height="12.731" transform="translate(326.413 249.673)" fill="#fff"/>
    <rect id="Rectangle_142" data-name="Rectangle 142" width="12" height="12" transform="translate(286 279.037)" fill="#fff"/>
    <rect id="Rectangle_143" data-name="Rectangle 143" width="13" height="12" transform="translate(306 279.037)" fill="#fff"/>
    <rect id="Rectangle_144" data-name="Rectangle 144" width="13" height="24" transform="translate(306 313.037)" fill="#fff"/>
    <rect id="Rectangle_145" data-name="Rectangle 145" width="12" height="12" transform="translate(327 279.037)" fill="#fff"/>
    <rect id="Rectangle_146" data-name="Rectangle 146" width="6" height="24" transform="translate(352 28.037)" fill="#3f3d56"/>
    <rect id="Rectangle_147" data-name="Rectangle 147" width="9.902" height="14.672" transform="translate(449.128 154.189)" fill="#c98b66"/>
    <rect id="Rectangle_148" data-name="Rectangle 148" width="84.167" height="169.773" transform="translate(374.155 167.603)" fill="#c98b66"/>
    <rect id="Rectangle_149" data-name="Rectangle 149" width="33.95" height="169.773" transform="translate(458.322 167.603)" fill="#3f3d56"/>
    <rect id="Rectangle_150" data-name="Rectangle 150" width="12.731" height="12.731" transform="translate(390.776 191.675)" fill="#fff"/>
    <rect id="Rectangle_151" data-name="Rectangle 151" width="12.731" height="12.731" transform="translate(411.288 191.675)" fill="#fff"/>
    <rect id="Rectangle_152" data-name="Rectangle 152" width="12.731" height="12.731" transform="translate(431.799 191.675)" fill="#fff"/>
    <path id="Path_184" data-name="Path 184" d="M0,0H13V12H0Z" transform="translate(391 221.037)" fill="#fff"/>
    <rect id="Rectangle_154" data-name="Rectangle 154" width="12" height="12" transform="translate(412 221.037)" fill="#fff"/>
    <rect id="Rectangle_155" data-name="Rectangle 155" width="13" height="12" transform="translate(432 221.037)" fill="#fff"/>
    <rect id="Rectangle_156" data-name="Rectangle 156" width="12.731" height="12.731" transform="translate(391.484 249.673)" fill="#fff"/>
    <rect id="Rectangle_157" data-name="Rectangle 157" width="12.731" height="12.731" transform="translate(411.995 249.673)" fill="#fff"/>
    <rect id="Rectangle_158" data-name="Rectangle 158" width="12.731" height="12.731" transform="translate(432.506 249.673)" fill="#fff"/>
    <rect id="Rectangle_159" data-name="Rectangle 159" width="13" height="12" transform="translate(392 279.037)" fill="#fff"/>
    <rect id="Rectangle_160" data-name="Rectangle 160" width="13" height="12" transform="translate(412 279.037)" fill="#fff"/>
    <rect id="Rectangle_161" data-name="Rectangle 161" width="13" height="24" transform="translate(412 313.037)" fill="#fff"/>
    <rect id="Rectangle_162" data-name="Rectangle 162" width="13" height="12" transform="translate(433 279.037)" fill="#fff"/>
    <rect id="Rectangle_163" data-name="Rectangle 163" width="5.658" height="14.253" transform="translate(458.322 154.189)" fill="#3f3d56"/>
    <rect id="Rectangle_164" data-name="Rectangle 164" width="628.071" height="1.585" transform="translate(0.173 336.522)" fill="#3f3d56"/>
    <circle id="Ellipse_21" data-name="Ellipse 21" cx="18.418" cy="18.418" r="18.418" transform="translate(499.783 267.355)" fill="#c98b66"/>
    <path id="Path_133" data-name="Path 133" d="M895.207,597.631a18.42,18.42,0,0,1-30.69,19.493,18.42,18.42,0,1,0,30.69-19.493Z" transform="translate(-363.305 -324.16)" opacity="0.2"/>
    <path id="Path_134" data-name="Path 134" d="M732.333,404.041h.051l.91,52.218h-1.922Z" transform="translate(-214.082 -118.268)" fill="#3f3d56"/>
    <rect id="Rectangle_165" data-name="Rectangle 165" width="0.911" height="3.441" transform="translate(521.181 313.411) rotate(62.234)" fill="#3f3d56"/>
    <circle id="Ellipse_22" data-name="Ellipse 22" cx="28.008" cy="28.008" r="28.008" transform="translate(544.342 230.576)" fill="#c98b66"/>
    <path id="Path_135" data-name="Path 135" d="M975.238,550.134a28.01,28.01,0,0,1-46.67,29.643,28.011,28.011,0,1,0,46.67-29.643Z" transform="translate(-382.054 -310.257)" opacity="0.2"/>
    <path id="Path_136" data-name="Path 136" d="M808.722,365.6h.077l1.385,79.408H807.26Z" transform="translate(-236.295 -107.015)" fill="#3f3d56"/>
    <rect id="Rectangle_166" data-name="Rectangle 166" width="1.385" height="5.232" transform="translate(576.881 300.612) rotate(62.234)" fill="#3f3d56"/>
    <circle id="Ellipse_23" data-name="Ellipse 23" cx="18.418" cy="18.418" r="18.418" transform="translate(0.438 266.647)" fill="#c98b66"/>
    <path id="Path_137" data-name="Path 137" d="M189.207,596.631a18.42,18.42,0,0,1-30.69,19.493,18.42,18.42,0,1,0,30.69-19.493Z" transform="translate(-156.65 -323.867)" opacity="0.2"/>
    <path id="Path_138" data-name="Path 138" d="M26.333,403.041h.051l.91,52.218H25.372Z" transform="translate(-7.427 -117.975)" fill="#3f3d56"/>
    <rect id="Rectangle_167" data-name="Rectangle 167" width="0.911" height="3.441" transform="translate(21.835 312.703) rotate(62.234)" fill="#3f3d56"/>
    <path id="Path_139" data-name="Path 139" d="M758.265,246.134l6.511-5.208c-5.058-.558-7.136,2.2-7.987,4.384-3.952-1.641-8.253.51-8.253.51l13.027,4.729A9.858,9.858,0,0,0,758.265,246.134Z" transform="translate(-329.356 -219.727)" fill="#3f3d56"/>
    <path id="Path_140" data-name="Path 140" d="M296.265,283.134l6.511-5.208c-5.058-.558-7.136,2.2-7.987,4.384-3.952-1.641-8.253.51-8.253.51l13.027,4.729a9.858,9.858,0,0,0-3.3-4.415Z" transform="translate(-194.123 -230.557)" fill="#3f3d56"/>
    <path id="Path_141" data-name="Path 141" d="M898.265,321.134l6.511-5.208c-5.058-.558-7.136,2.2-7.987,4.384-3.952-1.641-8.253.51-8.253.51l13.027,4.729a9.858,9.858,0,0,0-3.3-4.415Z" transform="translate(-370.336 -241.68)" fill="#3f3d56"/>
    <path id="Path_142" data-name="Path 142" d="M372.265,263.134l6.511-5.208c-5.058-.558-7.136,2.2-7.987,4.384-3.952-1.641-8.253.51-8.253.51l13.027,4.729A9.858,9.858,0,0,0,372.265,263.134Z" transform="translate(-216.369 -224.703)" fill="#3f3d56"/>
    <path id="Path_143" data-name="Path 143" d="M389.265,343.134l6.511-5.208c-5.058-.558-7.136,2.2-7.987,4.384-3.952-1.641-8.253.51-8.253.51l13.027,4.729A9.858,9.858,0,0,0,389.265,343.134Z" transform="translate(-221.345 -248.12)" fill="#3f3d56"/>
    <path id="Path_144" data-name="Path 144" d="M747.265,385.134l6.511-5.208c-5.058-.558-7.136,2.2-7.987,4.384-3.952-1.641-8.253.51-8.253.51l13.027,4.729a9.858,9.858,0,0,0-3.3-4.415Z" transform="translate(-326.136 -260.414)" fill="#3f3d56"/>
    <path id="Path_145" data-name="Path 145" d="M87.852,456H44v1.415h6.839v13.438h1.415V457.415H78.891v13.438h1.415V457.415h7.546Z" transform="translate(-12.879 -133.477)" fill="#3f3d56"/>
    <path id="Path_146" data-name="Path 146" d="M315.511,674.4a9.846,9.846,0,0,0-4.931,1.323,10.6,10.6,0,0,0-17.7,7.872h32.5a9.9,9.9,0,0,0-9.866-9.195Z" transform="translate(-195.98 -346.217)" fill="#3f3d56"/>
    <path id="Path_147" data-name="Path 147" d="M552.511,674.4a9.845,9.845,0,0,0-4.931,1.323,10.6,10.6,0,0,0-17.7,7.872h32.5A9.9,9.9,0,0,0,552.511,674.4Z" transform="translate(-265.352 -346.217)" fill="#3f3d56"/>
    <path id="Path_148" data-name="Path 148" d="M707.511,674.4a9.845,9.845,0,0,0-4.931,1.323,10.6,10.6,0,0,0-17.7,7.872h32.5a9.9,9.9,0,0,0-9.866-9.195Z" transform="translate(-310.723 -346.217)" fill="#3f3d56"/>
    <path id="Path_149" data-name="Path 149" d="M911.511,674.4a9.846,9.846,0,0,0-4.931,1.323,10.6,10.6,0,0,0-17.7,7.872h32.5A9.9,9.9,0,0,0,911.511,674.4Z" transform="translate(-370.436 -346.217)" fill="#3f3d56"/>
    <path id="Path_150" data-name="Path 150" d="M1009.511,674.4a9.846,9.846,0,0,0-4.931,1.323,10.6,10.6,0,0,0-17.7,7.872h32.5a9.9,9.9,0,0,0-9.866-9.195Z" transform="translate(-399.122 -346.217)" fill="#3f3d56"/>
    <path id="Path_151" data-name="Path 151" d="M124.317,407H113v11.317h5.246v38.131h1.415V418.317h4.656Z" transform="translate(-33.076 -119.134)" fill="#3f3d56"/>
    <rect id="Rectangle_168" data-name="Rectangle 168" width="43.852" height="1.415" transform="translate(31.207 318.291)" fill="#3f3d56"/>
    <rect id="Rectangle_169" data-name="Rectangle 169" width="43.852" height="1.415" transform="translate(31.207 314.755)" fill="#3f3d56"/>
    <rect id="Rectangle_170" data-name="Rectangle 170" width="43.852" height="1.415" transform="translate(31.207 311.218)" fill="#3f3d56"/>
  </g>
</svg>
